<!-- icon666.com - MILLIONS OF FREE VECTOR ICONS --><svg id="Layer_1" enable-background="new 0 0 512 512" viewBox="0 0 512 512" xmlns="http://www.w3.org/2000/svg"><g id="XMLID_1217_"><g id="XMLID_494_"><path id="XMLID_495_" d="m405.166 165.472c-4.29 0-8.585.258-12.841.769-8.101-18.795-19.599-35.708-34.255-50.365-18.791-18.79-42.075-32.789-67.337-40.484-5.285-1.609-10.872 1.368-12.48 6.652-1.609 5.283 1.369 10.871 6.652 12.48 22.134 6.743 42.544 19.017 59.022 35.495 14.572 14.573 25.581 31.678 32.721 50.842 1.716 4.605 6.523 7.279 11.338 6.313 5.628-1.129 11.408-1.702 17.18-1.702 47.881 0 86.834 38.953 86.834 86.833s-38.953 86.833-86.834 86.833c-13.715 0-26.837-3.107-39.003-9.234-4.884-2.46-10.84-.54-13.367 4.311-6.063 11.642-13.884 22.29-23.245 31.65-50.313 50.314-132.18 50.314-182.494 0-7.913-7.912-14.76-16.796-20.351-26.404-2.419-4.156-7.451-6.002-11.985-4.396-7.624 2.703-15.605 4.073-23.721 4.073-39.149 0-71-31.851-71-71s31.851-71 71-71c.273 0 .544.011.815.021l.776.023c.077.001.152.002.229.002 4.918 0 9.122-3.586 9.879-8.468 4.648-29.978 18.474-57.191 39.981-78.699 16.479-16.48 36.892-28.754 59.027-35.496 5.284-1.609 8.262-7.197 6.653-12.48s-7.197-8.26-12.479-6.653c-25.265 7.695-48.552 21.695-67.344 40.487-22.535 22.536-37.677 50.567-44.103 81.497-47.122 3.378-84.434 42.797-84.434 90.766 0 50.178 40.822 91 91 91 7.666 0 15.24-.955 22.608-2.846 5.59 8.519 12.062 16.471 19.306 23.715 28.15 28.15 65.579 43.653 105.39 43.653s77.239-15.503 105.39-43.653c8.557-8.558 16.002-18.053 22.21-28.314 12.46 4.944 25.626 7.445 39.263 7.445 58.908 0 106.834-47.925 106.834-106.833s-47.927-106.833-106.835-106.833z"></path><path id="XMLID_503_" d="m140.67 240.642c0 27.57 22.43 50 50 50 11.018 0 20.909-3.622 28.606-10.477 1.508-1.344 2.939-2.821 4.255-4.39 3.549-4.231 2.995-10.539-1.236-14.088-4.231-3.55-10.54-2.996-14.088 1.236-.696.83-1.449 1.607-2.234 2.308-4.031 3.59-9.18 5.41-15.303 5.41-16.542 0-30-13.458-30-30s13.458-30 30-30c6.012 0 11.81 1.77 16.767 5.118 4.575 3.09 10.793 1.889 13.884-2.689 3.092-4.577 1.888-10.792-2.688-13.884-8.275-5.59-17.944-8.545-27.962-8.545-27.571.001-50.001 22.431-50.001 50.001z"></path><path id="XMLID_504_" d="m424.224 264.349c.076-.328.136-.659.179-.993l.359-2.816c.054-.42.08-.843.08-1.266 0-15.788-12.844-28.632-28.631-28.632-13.651 0-25.467 9.712-28.095 23.093-1.064 5.419 2.466 10.675 7.885 11.74 5.421 1.064 10.676-2.466 11.74-7.885.791-4.026 4.353-6.948 8.47-6.948 4.586 0 8.348 3.595 8.615 8.115l-.192 1.508c-.636 2.452-2.212 6.399-6.068 11.874-22.969 32.608-25.739 36.453-25.842 36.595-2.204 3.044-2.516 7.065-.807 10.412 1.708 3.347 5.148 5.453 8.906 5.453h37.105c5.522 0 10-4.478 10-10s-4.478-10-10-10h-17.775c3.638-5.155 8.438-11.963 14.764-20.942 4.778-6.784 7.909-13.281 9.307-19.308z"></path><path id="XMLID_507_" d="m295.073 290.642c27.57 0 50-22.43 50-50s-22.43-50-50-50-50 22.43-50 50 22.43 50 50 50zm0-80c16.542 0 30 13.458 30 30s-13.458 30-30 30-30-13.458-30-30 13.458-30 30-30z"></path><path id="XMLID_508_" d="m243.31 88.339c2.63 0 5.21-1.07 7.07-2.93s2.93-4.44 2.93-7.07-1.069-5.21-2.93-7.07c-1.86-1.86-4.44-2.93-7.07-2.93s-5.21 1.07-7.069 2.93c-1.86 1.86-2.931 4.44-2.931 7.07s1.07 5.21 2.931 7.07c1.859 1.861 4.439 2.93 7.069 2.93z"></path></g></g></svg>