<?xml version="1.0" ?><!-- Uploaded to: SVG Repo, www.svgrepo.com, Generator: SVG Repo Mixer Tools -->
<svg fill="#000000" width="800px" height="800px" viewBox="0 0 512 512" data-name="Layer 1" id="Layer_1" xmlns="http://www.w3.org/2000/svg"><title/><path d="M493.87,178.78a5.79,5.79,0,0,0-7-4.42C292.52,214,306,382.74,306.67,389.85v87.44a6,6,0,0,0,11.92,0v-82c67.47-1.13,117.14-21,147.36-59.45C515.87,272.3,494.79,182.57,493.87,178.78Zm-37.3,149.67c-27.09,34.46-71.83,52.77-132.77,54.77,35.71-53.09,96.51-100.53,97.16-101a6,6,0,1,0-7.3-9.44c-2.61,2-58.7,45.8-95.6,97.81,1.23-43.44,19.39-150.84,165.37-183.29C487.09,207.61,496.08,278.17,456.57,328.45Z"/><path d="M280.51,328.51c1.85-28.87,6.88-246.58-253.3-299.61a5.86,5.86,0,0,0-7,4.42c-1.29,5.33-30.85,131.17,39.05,220.13,42.77,54.4,113.43,82.31,209.81,83.31V477.29a6,6,0,1,0,11.92,0V331a6.27,6.27,0,0,0-.26-1.77C280.72,329.12,280.57,328.68,280.51,328.51ZM68.71,246.14c-58.25-74.06-42.9-179-38.07-204.34,204.47,44.28,235.08,191,238.29,256.62C247.84,249.61,196.88,156,102.77,114.2a6,6,0,0,0-4.85,10.9C204.61,172.49,255,293.4,266.59,324.9,175.35,323.47,108.76,297,68.71,246.14Z"/></svg>