<!-- icon666.com - MILLIONS OF FREE VECTOR ICONS --><svg viewBox="0 0 512.00073 512.00073" xmlns="http://www.w3.org/2000/svg" xmlns:xlink="http://www.w3.org/1999/xlink"><linearGradient id="a"><stop offset="0" stop-color="#e93e3a"></stop><stop offset=".355" stop-color="#ed683c"></stop><stop offset=".705" stop-color="#f3903f"></stop><stop offset="1" stop-color="#fdc70c"></stop></linearGradient><linearGradient id="b" gradientTransform="matrix(.698866 0 0 -.698866 0 506.501739)" gradientUnits="userSpaceOnUse" x1="366.3076" x2="366.3076" xlink:href="#a" y1="-7.8677" y2="813.9435"></linearGradient><linearGradient id="c" gradientTransform="matrix(.698866 0 0 -.698866 0 506.501739)" gradientUnits="userSpaceOnUse" x1="366.3076" x2="366.3076" xlink:href="#a" y1="-7.2266" y2="814.5845"></linearGradient><path d="m256 0c-141.382812 0-256 114.617188-256 256 0 141.386719 114.617188 256 256 256 141.386719 0 256-114.613281 256-256-.167969-141.316406-114.683594-255.832031-256-256zm0 480c-123.710938 0-224-100.289062-224-224s100.289062-224 224-224 224 100.289062 224 224c-.132812 123.65625-100.34375 223.867188-224 224zm0 0" fill="url(#b)"></path><g fill="url(#c)"><path d="m240 128h32v176h-32zm0 0"></path><path d="m240 352h32v32h-32zm0 0"></path></g></svg>